<?xml version="1.0" encoding="utf-8"?>
<!-- Generator: Adobe Illustrator 16.0.0, SVG Export Plug-In . SVG Version: 6.00 Build 0)  -->
<!DOCTYPE svg PUBLIC "-//W3C//DTD SVG 1.1//EN" "http://www.w3.org/Graphics/SVG/1.1/DTD/svg11.dtd">
<svg version="1.1" id="Layer_1" xmlns="http://www.w3.org/2000/svg" xmlns:xlink="http://www.w3.org/1999/xlink" x="0px" y="0px"
	 width="218.333px" height="120px" viewBox="0 -45.667 218.333 120" enable-background="new 0 -45.667 218.333 120"
	 xml:space="preserve">
<g>
	<path fill="#003DA6" d="M34.057,22.726c0.006,0,0.849,0,1.693,0c0.54,0,0.978-0.438,0.978-0.979V8.045h-1.957
		c-0.541,0-0.979,0.438-0.979,0.979v9.04L23.271,8.045h-1.958c-0.541,0-0.979,0.438-0.979,0.979v13.702h1.958
		c0.541,0,0.979-0.438,0.979-0.979v-9.074l10.766,10.033L34.057,22.726z"/>
	<path fill="#003DA6" d="M55.325,10.002V8.045H43.58h-1.958c-0.541,0-0.978,0.438-0.978,0.979v1.958v2.938v2.933v2.938v1.958
		c0,0.541,0.438,0.979,0.978,0.979h1.958h11.746v-1.957c0-0.54-0.438-0.979-0.979-0.979H43.58v-2.938h7.83
		c0.541,0,0.978-0.438,0.978-0.979v-0.975c0-0.541-0.438-0.979-0.978-0.979h-7.83v-2.938h10.766
		C54.887,10.981,55.325,10.543,55.325,10.002z"/>
	<path fill="#003DA6" d="M68.049,8.045h-2.936h-6.852v1.957c0,0.541,0.438,0.979,0.979,0.979h5.872v10.766
		c0,0.541,0.438,0.978,0.979,0.978h0.979c0.541,0,0.979-0.437,0.979-0.978V10.981h5.873c0.541,0,0.978-0.438,0.978-0.979V8.045
		H68.049z"/>
	<path fill="#003DA6" d="M176.446,22.726h1.959V9.024c0-0.541-0.438-0.979-0.979-0.979c-0.854,0-1.958,0-1.958,0l-5.873,8.389
		l-5.872-8.389h-1.957c-0.541,0-0.979,0.438-0.979,0.979v13.702h1.958c0.541,0,0.979-0.438,0.979-0.979v-8.108l4.509,6.44
		c0.078,0.11,0.249,0.2,0.385,0.2h1.958c0.137,0,0.309-0.09,0.386-0.2l4.508-6.44v8.108
		C175.468,22.289,175.907,22.726,176.446,22.726z"/>
	<path fill="#003DA6" d="M197,10.002V8.045h-11.744h-1.958c-0.54,0-0.979,0.438-0.979,0.979v1.958v2.938v2.933v2.938v1.958
		c0,0.541,0.439,0.979,0.979,0.979h1.958H197v-1.957c0-0.54-0.438-0.979-0.978-0.979h-10.767v-2.938h7.83
		c0.54,0,0.979-0.438,0.979-0.979v-0.975c0-0.541-0.438-0.979-0.979-0.979h-7.83v-2.938h10.767
		C196.563,10.981,197,10.543,197,10.002z"/>
	<path fill="#003DA6" d="M111.604,8.045h-10.767c-1.892,0-3.426,1.533-3.426,3.425V19.3c0,1.892,1.534,3.425,3.426,3.425h10.766
		c1.893,0,3.426-1.533,3.426-3.425V11.47C115.029,9.578,113.496,8.045,111.604,8.045z M100.348,18.812v-6.853
		c0-0.541,0.438-0.978,0.978-0.978h9.789c0.54,0,0.979,0.438,0.979,0.978v6.853c0,0.54-0.438,0.978-0.979,0.978h-9.789
		C100.786,19.79,100.348,19.352,100.348,18.812z"/>
	<path fill="#003DA6" d="M153.936,13.754v5.058c0,0.54-0.439,0.978-0.979,0.978h-9.788c-0.541,0-0.979-0.438-0.979-0.978v-6.853
		c0-0.541,0.438-0.978,0.979-0.978h3.915V8.045h-4.404c-1.893,0-3.426,1.533-3.426,3.425V19.3c0,1.892,1.533,3.425,3.426,3.425
		h10.767c1.891,0,3.426-1.533,3.426-3.425v-7.229L153.936,13.754z"/>
	<path fill="#003DA6" d="M93.497,14.407V11.47c0-1.892-1.533-3.425-3.426-3.425h-9.298h-1.958c-0.54,0-0.979,0.438-0.979,0.979
		v1.958v3.915v2.936v4.895h1.958c0.541,0,0.978-0.438,0.978-0.979v-3.914h6.175l3.204,4.895h2.914c0.405,0,0.551-0.273,0.325-0.609
		l-2.904-4.312C92.181,17.599,93.497,16.158,93.497,14.407z M90.561,13.917c0,0.541-0.438,0.979-0.979,0.979h-8.809V10.98h8.809
		c0.54,0,0.979,0.438,0.979,0.979V13.917z"/>
	<path fill="#225FAC" d="M130.17,18.895"/>
	<path fill="#003DA6" d="M132.667,22.726c0.006,0,0.848,0,1.692,0c0.54,0,0.979-0.438,0.979-0.979V8.045h-1.957
		c-0.542,0-0.979,0.438-0.979,0.979v9.04L121.88,8.045h-1.957c-0.541,0-0.98,0.438-0.98,0.979v13.702h1.958
		c0.541,0,0.979-0.438,0.979-0.979v-9.074l10.766,10.033L132.667,22.726z"/>
	<path fill="#FFCE00" d="M149.57,13.917c-0.091,0-0.183-0.023-0.264-0.07c-0.164-0.093-0.264-0.267-0.264-0.454V5.632
		c0-0.188,0.1-0.361,0.264-0.453c0.083-0.048,0.173-0.07,0.264-0.07c0.092,0,0.184,0.023,0.266,0.07l6.771,3.88
		c0.164,0.094,0.265,0.267,0.265,0.454s-0.101,0.361-0.265,0.453l-6.771,3.88C149.753,13.894,149.662,13.917,149.57,13.917z"/>
</g>
</svg>
